# xmcd CD database file
#
# Track frame offsets:
#	150
#	61137
#	91153
#	131983
#	185210
#	230174
#	267037
#
# Disc length: 4130 seconds
#
# Revision: 0
# Processed by: cddbd v1.5.2PL0 Copyright (c) Steve Scherf et al.
# Submitted via: CDex 1.70beta3
#
DISCID=63102007
DTITLE=Shabaka and the Ancestors - Wisdom of Elders
DYEAR=2016
DGENRE=Jazz
TTITLE0=Mzawandile
TTITLE1=Joyous
TTITLE2=The Observer
TTITLE3=The Sea
TTITLE4=Natty
TTITLE5=Give Thanks
TTITLE6=Nguni
EXTD=YEAR: 2016
EXTT0=
EXTT1=
EXTT2=
EXTT3=
EXTT4=
EXTT5=
EXTT6=
PLAYORDER=
